<svg width="540" height="160" viewBox="105 218 330 104" fill="none" xmlns="http://www.w3.org/2000/svg">
<path d="M268.605 277.307V277.034H260.674V277.282C260.674 284.013 255.144 288.518 248.025 288.518C240.906 288.518 236.116 284.037 236.116 277.307C236.116 270.497 240.834 266.022 248.025 266.022H249.656V258.122H247.861C236.019 258.122 227.445 266.162 227.445 277.307C227.445 288.906 235.492 296.334 248.177 296.334C255.295 296.334 259.625 299.269 259.625 304.071C259.625 308.94 254.986 312.196 248.025 312.196C240.755 312.196 236.195 308.479 236.347 302.834H227.833C227.366 313.118 235.413 320 248.025 320C260.322 320 268.368 313.815 268.368 304.15C268.368 298.505 264.967 294.248 258.861 291.998C265.203 289.215 268.605 284.116 268.605 277.307ZM260.674 266.022V273.202H260.68V266.022H260.674Z" fill="white"/>
<path d="M260.685 273.202V266.022H253.493V258.122H268.591V271.552V273.202H260.685Z" fill="url(#paint0_linear_167_214)"/>
<path d="M276.251 277.998C276.251 266.55 284.218 258.042 296.673 258.042C309.049 258.042 317.016 266.55 317.016 277.998C317.016 289.446 309.049 297.953 296.673 297.953C284.218 297.953 276.251 289.446 276.251 277.998ZM308.351 277.998C308.351 271.346 303.786 265.931 296.673 265.931C289.482 265.931 284.916 271.346 284.916 277.998C284.916 284.649 289.482 290.064 296.673 290.064C303.792 290.064 308.351 284.649 308.351 277.998Z" fill="white"/>
<path d="M158.939 220C131.356 220 109 242.356 109 269.939C109 297.522 131.356 319.879 158.939 319.879C186.522 319.879 208.879 297.522 208.879 269.939C208.879 242.356 186.528 220 158.939 220ZM164.621 302.155H156.817C139.105 302.1 124.705 287.651 124.705 269.933C124.705 252.337 138.924 237.96 156.471 237.724V249.645C145.49 249.875 136.613 258.916 136.613 269.933C136.613 280.963 145.49 289.997 156.471 290.228L159.691 290.234L159.794 290.131L173.486 276.433L174.08 275.851H149.038V263.93H174.08L173.492 263.342L161.328 251.179L169.757 242.75L196.885 269.885L164.621 302.155Z" fill="url(#paint1_linear_167_214)"/>
<path d="M382.515 242.605V296.952H373.51V257.976L354.646 281.89H352.706L333.915 258.055V296.952H324.832V242.605H333.06L353.713 268.927L374.365 242.605H382.515Z" fill="white"/>
<path d="M393.896 242.605H402.979V288.488H431.629V296.952H393.896V242.605Z" fill="white"/>
<defs>
<linearGradient id="paint0_linear_167_214" x1="255.608" y1="260.404" x2="266.016" y2="270.729" gradientUnits="userSpaceOnUse">
<stop stop-color="#C55A11"/>
<stop offset="1" stop-color="#ED7D31"/>
</linearGradient>
<linearGradient id="paint1_linear_167_214" x1="122.986" y1="235.116" x2="191.926" y2="303.42" gradientUnits="userSpaceOnUse">
<stop stop-color="#C55A11"/>
<stop offset="1" stop-color="#ED7D31"/>
</linearGradient>
</defs>
</svg>