<svg width="515" height="160" viewBox="0 0 515 160" fill="none" xmlns="http://www.w3.org/2000/svg">
<path d="M254.408 91.346V90.9111H241.766V91.3074C241.766 102.036 232.952 109.217 221.605 109.217C210.258 109.217 202.622 102.074 202.622 91.346C202.622 80.492 210.142 73.3591 221.605 73.3591H224.205V60.7653H221.344C202.467 60.7653 188.801 73.5814 188.801 91.346C188.801 109.836 201.627 121.675 221.846 121.675C233.193 121.675 240.094 126.353 240.094 134.008C240.094 141.769 232.7 146.96 221.605 146.96C210.016 146.96 202.748 141.035 202.989 132.037H189.419C188.675 148.429 201.501 159.399 221.605 159.399C241.206 159.399 254.031 149.54 254.031 134.134C254.031 125.136 248.609 118.351 238.876 114.765C248.986 110.328 254.408 102.2 254.408 91.346ZM241.766 73.3591V84.8027H241.776V73.3591H241.766Z" fill="white"/>
<path d="M241.785 84.8027V73.3591H230.322V60.7653H254.388V82.1737V84.8027H241.785Z" fill="white"/>
<path d="M266.596 92.4475C266.596 74.1996 279.296 60.6393 299.148 60.6393C318.875 60.6393 331.575 74.1996 331.575 92.4475C331.575 110.695 318.875 124.256 299.148 124.256C279.296 124.256 266.596 110.695 266.596 92.4475ZM317.763 92.4475C317.763 81.8448 310.486 73.2137 299.148 73.2137C287.685 73.2137 280.407 81.8448 280.407 92.4475C280.407 103.05 287.685 111.681 299.148 111.681C310.495 111.681 317.763 103.05 317.763 92.4475Z" fill="white"/>
<path d="M79.6028 0C35.6357 0 0 35.6357 0 79.6028C0 123.57 35.6357 159.206 79.6028 159.206C123.57 159.206 159.206 123.57 159.206 79.6028C159.206 35.6357 123.58 0 79.6028 0ZM88.6591 130.954H76.22C47.9879 130.867 25.0329 107.835 25.0329 79.5931C25.0329 51.5447 47.6979 28.6284 75.6691 28.2515V47.2533C58.1653 47.6206 44.0154 62.0314 44.0154 79.5931C44.0154 97.1742 58.1653 111.575 75.6691 111.943L80.8013 111.952L80.9656 111.788L102.79 89.9543L103.737 89.0264H63.8195V70.0246H103.737L102.799 69.087L83.4109 49.6986L96.8456 36.2639L140.088 79.5158L88.6591 130.954Z" fill="white"/>
<path d="M435.979 36.0321V122.662H421.627V60.5335L391.558 98.6531H388.465L358.513 60.6591V122.662H344.034V36.0321H357.15L390.07 77.9889L422.989 36.0321H435.979Z" fill="white"/>
<path d="M454.121 36.0321H468.599V109.169H514.267V122.662H454.121V36.0321Z" fill="white"/>
</svg>
